<svg width="120" height="98" viewBox="0 0 120 98" fill="none" xmlns="http://www.w3.org/2000/svg">
<g clipPath="url(#clip0_250_127)">
<path d="M119.19 46.3743C118.926 41.4281 118.716 36.3936 118.511 31.5255C118.312 26.7847 118.107 21.8824 117.852 17.0626C117.484 10.0634 113.896 4.96433 107.478 2.31657C105.212 1.38224 102.423 0.888173 98.9587 0.804807C89.7806 0.585748 80.4483 0.484493 71.4228 0.386051C68.2101 0.350871 64.9978 0.314055 61.7859 0.275624C61.705 0.208308 61.6035 0.171314 61.4984 0.17126H54.0171C47.9376 0.17126 41.8585 0.173067 35.7802 0.176023C34.6677 0.176023 33.5517 0.173498 32.4396 0.170394C29.0963 0.158864 25.6387 0.149296 22.2383 0.273459C17.5956 0.442409 14.0207 1.35358 10.9886 3.14152C4.84793 6.76353 1.57235 11.9337 1.25279 18.5094C1.08444 21.9722 1.02773 25.4943 0.973222 28.9008L0.937622 31.0336C0.888391 33.8926 0.836954 36.7509 0.783328 39.6087C0.61058 49.0257 0.431681 58.7631 0.360912 68.3436C0.33234 72.1572 0.523987 76.6692 2.15871 81.218C4.57629 87.9463 9.03563 92.296 15.7917 94.5158C22.0774 96.5326 28.6322 97.5667 35.2282 97.5809C51.6237 97.7946 68.8211 97.8957 89.0602 97.8957H92.9916C96.7112 97.9591 100.424 97.5538 104.044 96.6887C112.342 94.5473 117.26 89.4163 118.66 81.4371C119.105 78.7303 119.415 76.0023 119.587 73.2636C120.193 64.9535 119.738 56.5322 119.298 48.3871L119.19 46.3743ZM42.5161 90.3342C35.4141 90.3125 27.8255 90.0415 20.4528 88.2172C17.4862 87.4838 15.3644 86.6244 13.669 85.4617L50.258 51.5156L51.2795 52.6242C52.2976 53.7297 53.3485 54.8706 54.4101 56.0014C57.4826 59.2753 60.4971 59.5436 63.8949 56.8466C65.2853 55.7438 66.6061 54.4959 67.8835 53.2933C68.367 52.8366 68.8558 52.3767 69.3516 51.9191L105.163 88.3844C103.925 89.411 102.429 89.626 100.853 89.8526L100.4 89.9183C98.7068 90.1453 96.9995 90.2508 95.2914 90.2331L85.2747 90.2695C71.2589 90.3222 56.7683 90.3777 42.5161 90.3342ZM98.4281 14.5505C93.0699 19.4306 87.5296 24.4763 82.2466 29.6188C76.9745 34.7503 71.8057 40.1281 66.8066 45.3305C64.7376 47.4838 62.6013 49.7072 60.4918 51.8765L15.9934 7.8496C16.312 7.76415 16.628 7.67786 16.9416 7.59064C18.1547 7.25761 19.3007 6.94215 20.4712 6.71023C26.2915 5.55729 32.284 5.71409 38.0796 5.86797C39.3741 5.90167 40.6682 5.93501 41.9618 5.9563C43.9301 5.98734 45.9336 6.05354 47.8703 6.11784C49.5525 6.17327 51.2918 6.23092 53.0048 6.26506C57.822 6.36116 62.6391 6.45339 67.4567 6.54181C77.8699 6.73781 88.6369 6.94113 99.225 7.19744C100.714 7.28032 102.193 7.49051 103.647 7.82579C104.218 7.94064 104.811 8.05851 105.399 8.16139V8.17611C103.083 10.3113 100.717 12.4663 98.4272 14.5523L98.4281 14.5505ZM23.4831 68.1082C19.0202 72.3891 14.4106 76.812 9.95299 81.3315C8.10156 76.9251 7.142 73.3084 6.85629 69.6819C6.06508 59.6216 6.39387 49.6079 6.8009 40.2137C6.98684 35.9296 7.06112 31.5723 7.13321 27.3583C7.18244 24.4937 7.23343 21.5314 7.3187 18.6225C7.40662 15.537 8.42947 13.372 10.7169 11.4586L45.4861 45.9171C38.4079 53.7886 30.8211 61.0677 23.4805 68.1117L23.4831 68.1082ZM111.136 80.579C110.973 81.4628 110.756 82.3355 110.484 83.1913C110.387 83.5234 110.289 83.8565 110.197 84.189L110.057 84.236L73.2013 48.004C85.942 34.7449 98.025 23.4371 110.11 13.4597C110.162 13.6943 110.215 13.9226 110.267 14.1452C110.482 14.9532 110.625 15.7789 110.694 16.6127C111.102 25.0044 111.434 33.2859 111.678 39.5641C111.907 45.4555 112.102 51.2681 112.258 56.8417C112.454 63.899 112.476 72.2401 111.133 80.5808L111.136 80.579Z" fill="black"/>
</g>
<defs>
<clipPath id="clip0_250_127">
<rect width="120" height="98" fill="white"/>
</clipPath>
</defs>
</svg>
