<svg width="82" height="141" viewBox="0 0 82 141" fill="none" xmlns="http://www.w3.org/2000/svg">
<g clipPath="url(#clip0_250_138)">
<path d="M81.5181 78.4615C81.5181 91.739 81.5412 105.016 81.4992 118.294C81.5097 121.023 81.3572 123.749 81.0429 126.458C80.8863 128.081 80.3874 129.647 79.5822 131.046C77.2168 134.774 73.5898 137.779 69.2449 138.723C65.7504 139.551 62.1918 140.051 58.6112 140.219C46.5364 140.54 34.4551 140.634 22.3753 140.721C19.9353 140.739 17.4895 140.376 15.0505 140.14C8.2503 139.484 4.70063 134.868 2.82409 128.698C1.88793 125.619 1.71184 122.276 1.32076 119.036C-0.0459004 107.717 0.251618 96.3445 0.390387 84.9776C0.504277 75.6114 0.599579 66.2453 0.676322 56.8792C0.752015 46.148 0.671597 35.4139 0.889738 24.6864C0.968405 21.0573 1.43042 17.4482 2.26744 13.924C3.81546 7.4123 8.17829 4.06157 14.455 2.74666C29.0305 -0.306153 43.7074 0.10392 58.4114 0.905655C63.6153 1.18929 68.2788 3.12211 72.6169 6.0487C75.684 8.08686 77.9406 11.2071 78.9719 14.8361C79.8082 17.7976 80.3233 20.847 80.5073 23.9274C80.9982 33.6404 81.3457 43.361 81.5507 53.0893C81.7173 61.5431 81.5854 70.0037 81.5854 78.4615H81.5181ZM9.58438 111.481C31.0294 109.512 52.5653 108.822 74.0861 109.418C74.1486 108.278 74.2348 107.388 74.2401 106.499C74.3736 84.9486 73.9772 62.852 74.0887 41.2997C74.0976 40.2106 74.0277 39.1223 73.8784 38.0442C73.1783 33.1043 73.0169 28.7076 72.2085 23.7868C71.8379 21.6524 71.3338 19.5454 70.6993 17.479C70.374 16.3921 69.8189 15.3947 69.0751 14.5594C68.3313 13.7241 67.4172 13.072 66.3996 12.6511C63.4555 11.2329 60.2606 10.4629 57.0164 10.3893C53.6029 10.3242 50.1833 10.3667 46.7766 10.2017C36.4956 9.70328 26.3292 10.6542 16.199 12.4347C12.9742 13.0014 11.2123 14.8197 10.5305 17.9681C10.2553 19.2078 10.0795 20.4691 10.0049 21.739C9.88032 24.0983 9.83564 26.4638 9.81987 28.8269C9.68809 48.8292 9.56336 68.833 9.44561 88.8376C9.40882 94.6563 9.3284 100.475 9.3142 106.294C9.31368 107.902 9.47768 109.51 9.58438 111.481ZM73.7239 115.695L9.8819 116.478C10.2987 120.631 10.1048 124.462 11.2386 128.105C12.1096 130.903 13.9756 132.688 17.0164 132.741C18.1534 132.761 19.2888 132.855 20.4252 132.86C24.1 132.874 27.7742 132.866 31.4489 132.86C41.3352 132.845 51.2225 132.903 61.1064 132.759C63.7225 132.703 66.3223 132.317 68.8491 131.611C71.1777 130.973 73.377 129.445 73.6393 126.764C73.982 123.273 73.7239 119.719 73.7239 115.696V115.695Z" fill="black"/>
<path d="M47.4595 123.746C47.4516 126.662 44.7966 129.196 41.6864 129.258C41.007 129.276 40.3311 129.151 39.6993 128.891C39.0675 128.631 38.4928 128.24 38.0099 127.743C37.527 127.246 37.1458 126.652 36.8893 125.998C36.6328 125.344 36.5062 124.642 36.5173 123.936C36.5638 122.422 37.1603 120.983 38.1868 119.909C39.2132 118.834 40.5932 118.204 42.0486 118.146C44.7772 118.11 47.4658 120.894 47.4595 123.746Z" fill="black"/>
</g>
<defs>
<clipPath id="clip0_250_138">
<rect width="82" height="141" fill="white"/>
</clipPath>
</defs>
</svg>
