<?xml version="1.0" ?><svg enable-background="new 0 0 32 32" version="1.1" viewBox="0 0 32 32" xml:space="preserve" xmlns="http://www.w3.org/2000/svg" xmlns:xlink="http://www.w3.org/1999/xlink"><g id="Flat_copy"><g><path d="M15.995,0.016c-8.837,0-16,7.163-16,16c0,8.836,7.163,16,16,16s16-7.164,16-16    C31.995,7.179,24.831,0.016,15.995,0.016z" fill="#333333"/></g><path d="M13.099,23.179l0.784-3.334c0,0,0.243-0.952,1.292-0.952c1.047,0,8.298,0.277,9.904-4.842   c0.589-1.871,0.997-6.31-6.324-6.31h-5.287c0,0-1.1-0.05-1.371,1.09L8.64,23.378c0,0-0.148,0.912,0.797,0.912   c0.946,0,2.36,0,2.36,0S12.886,24.349,13.099,23.179z M15.093,14.717l0.702-2.957c0,0,0.224-0.804,0.946-0.922   c0.722-0.12,1.951,0.02,2.268,0.079c2.054,0.376,1.617,2.272,1.617,2.272c-0.407,2.926-5.075,2.519-5.075,2.519   C14.818,15.451,15.093,14.717,15.093,14.717z" fill="#FFFFFF"/></g></svg>