<svg width="512" height="512" viewBox="0 0 512 512" fill="none" xmlns="http://www.w3.org/2000/svg">
<rect width="512" height="512" rx="40" fill="#635BFF"/>
<path d="M131.047 334H100.773V216.422H62.0039V191.227H169.816V216.422H131.047V334ZM310.246 261.246C310.246 277.327 307.154 290.771 300.969 301.578C294.849 312.32 285.962 320.426 274.309 325.895C262.655 331.298 248.625 334 232.219 334H191.789V191.227H236.613C251.587 191.227 264.576 193.896 275.578 199.234C286.581 204.508 295.109 212.353 301.164 222.77C307.219 233.121 310.246 245.947 310.246 261.246ZM278.801 262.027C278.801 251.48 277.238 242.822 274.113 236.051C271.053 229.215 266.496 224.169 260.441 220.914C254.452 217.659 247.03 216.031 238.176 216.031H222.062V309H235.051C249.829 309 260.799 305.061 267.961 297.184C275.188 289.306 278.801 277.587 278.801 262.027ZM454.68 334H420.305L382.902 273.844L370.109 283.023V334H339.836V191.227H370.109V256.559C372.128 253.759 374.113 250.96 376.066 248.16C378.02 245.361 380.005 242.561 382.023 239.762L420.695 191.227H454.289L404.484 254.41L454.68 334Z" fill="white"/>
</svg>
